<?xml version="1.0" encoding="utf-8"?>
<!-- Generator: Adobe Illustrator 25.4.8, SVG Export Plug-In . SVG Version: 6.00 Build 0)  -->
<svg version="1.1" id="Layer_1" xmlns="http://www.w3.org/2000/svg" xmlns:xlink="http://www.w3.org/1999/xlink" x="0px" y="0px"
	 viewBox="0 0 448.24 237.56" style="enable-background:new 0 0 448.24 237.56;" xml:space="preserve">
<style type="text/css">
	.st0{fill:#FFFFFF;stroke:#221E1F;stroke-miterlimit:10;}
	.st1{fill:#FFFFFF;}
	.st2{fill:url(#SVGID_1_);}
	.st3{fill:url(#SVGID_00000067956634242801921720000006269948347347742638_);}
	.st4{fill:url(#SVGID_00000054954985343288964340000008010203928380245419_);}
	.st5{fill:url(#SVGID_00000152259144696919421490000004906893505762367918_);}
	.st6{fill:url(#SVGID_00000154411730891532553110000011592216637212283023_);}
	.st7{fill:url(#SVGID_00000008148523708203655020000004433096877421719737_);}
	.st8{fill:url(#SVGID_00000122709572656258229820000006392928909008383152_);}
	.st9{fill:url(#SVGID_00000013902836854753601190000018034058261187901092_);}
	.st10{fill:url(#SVGID_00000173871436579975858280000004959097823689969561_);}
	.st11{fill:url(#SVGID_00000085932835928803122030000007847025963410271153_);}
	.st12{fill:url(#SVGID_00000170968975250334120770000016216149540047938718_);}
	.st13{fill:url(#SVGID_00000030448844594100555030000008497539590081858999_);}
	.st14{fill:url(#SVGID_00000143585796169610813650000011374262458538337181_);}
	.st15{fill:none;}
	.st16{fill:url(#SVGID_00000057864835257956204520000003396058913268436894_);}
	.st17{fill:url(#SVGID_00000039091337482961990430000005376694272031645338_);}
	.st18{fill:url(#SVGID_00000049920982816003969570000015001345780922229167_);}
	.st19{fill:url(#SVGID_00000011025845250539577310000004045492516763362495_);}
	.st20{fill:url(#SVGID_00000114762332050099469790000008038651658973252232_);}
	.st21{fill:url(#SVGID_00000093883723977624708910000007780411743908690358_);}
	.st22{fill:url(#SVGID_00000168116589387385670760000007480744508853846415_);}
	.st23{fill:url(#SVGID_00000075143277394826857990000017949768828900048315_);}
	.st24{fill:url(#SVGID_00000008838558044805716920000005273013826257340563_);}
	.st25{fill:url(#SVGID_00000173843462069632766170000007469132931225077423_);}
	.st26{fill:url(#SVGID_00000047766267291589674900000018326492110536402094_);}
	.st27{fill:url(#SVGID_00000118372086577877579250000005632103249079218609_);}
	.st28{fill:url(#SVGID_00000130629238138355679090000009674660273974486925_);}
	.st29{fill:url(#SVGID_00000062904145077357369020000003819613887108316819_);}
	.st30{fill:url(#SVGID_00000036216089460454576500000012527903714873860241_);}
	.st31{fill:url(#SVGID_00000119804619966156936640000005704170918108320401_);}
	.st32{fill:url(#SVGID_00000162320567302893343540000008314196194251816612_);}
	.st33{fill:url(#SVGID_00000095337864053058165460000012504819361683727233_);}
	.st34{fill:url(#SVGID_00000177465244783805065180000006427094901877528475_);}
	.st35{fill:url(#SVGID_00000086675708226203719520000015610222677761113736_);}
	.st36{fill:url(#SVGID_00000163792500854608266550000018167864696474737538_);}
	.st37{fill:url(#SVGID_00000056408947391724214330000017961232626437003956_);}
	.st38{fill:url(#SVGID_00000166635368774329140480000007387064247386710703_);}
	.st39{fill:#EA8B1B;}
	.st40{fill:url(#SVGID_00000183210654900657312460000013486835947177844378_);}
	.st41{fill:url(#SVGID_00000088103423596286312620000014139351662585221794_);}
	.st42{fill:url(#SVGID_00000096761859561119624940000002553303923638405009_);}
	.st43{fill:url(#SVGID_00000127722732812939604060000015621229857787732139_);}
	.st44{fill:url(#SVGID_00000001652098763778049790000002374406972492847799_);}
	.st45{fill:url(#SVGID_00000135664779846182433470000004848763176040655283_);}
	.st46{fill:url(#SVGID_00000031924022214140682040000004859592724394263955_);}
	.st47{fill:url(#SVGID_00000029016024683416885720000009761712373379282306_);}
	.st48{fill:url(#SVGID_00000123439097612070323070000000052471071459202467_);}
	.st49{fill:url(#SVGID_00000150061506688340525020000008194403905672690571_);}
	.st50{fill:url(#SVGID_00000094577982450613167390000017101762095523292053_);}
	.st51{fill:url(#SVGID_00000064327202193047453070000000937524765650489218_);}
	.st52{fill:url(#SVGID_00000062155543952056872370000006012302272032710829_);}
	.st53{fill:url(#SVGID_00000120528160452104801120000009501943169600989569_);}
	.st54{fill:url(#SVGID_00000023253782534198414180000013673416915401134216_);}
	.st55{fill:url(#SVGID_00000041284719440726977360000017945701803236173475_);}
</style>
<g>
	<path class="st0" d="M196.23,124.49"/>
	<path class="st1" d="M60.66,206.37h-5.27v22.93h5.27v-9.1h4.48l2.45-4.27h-6.93C60.66,215.93,60.66,206.37,60.66,206.37z
		 M82.19,169.34h9.51v-4.15H76.2v-2.8l0.12-0.01c4.13-0.2,8.23-0.43,11.71-0.62l-2.15-4.65c-8.79,1.05-19.68,1.44-27.35,1.58
		c0.67,1.61,1.12,2.98,1.42,4.28c3.31-0.06,6.9-0.17,10.96-0.34l0.13-0.01v2.57H55.38v4.15h9.51l-0.18,0.21
		c-2.58,3.01-6.52,5.71-11.1,7.6c1.51,1.8,2.19,2.75,3.02,4.22c1.76-1.05,3.17-1.93,4.41-2.77l0.19-0.13v16.44h24.72v-16.79
		l0.19,0.12c1.21,0.74,2.58,1.5,4.19,2.34c0.61-1.5,1.53-2.69,2.79-4.31l0.34-0.45c-4.73-1.74-8.24-3.73-11.04-6.25L82.19,169.34z
		 M80.6,190.71H66.4v-2.81h14.2V190.71z M85.01,177.51H67.14l2.27,3.94H80.6v2.76H66.4v-6.7h-3.79l0.31-0.23
		c3.39-2.48,5.83-4.99,7.68-7.89l0.04-0.06h0.41v7.37h5.16v-7.37h0.35l0.04,0.05c2.48,3.44,4.82,5.72,8.07,7.89L85.01,177.51z
		 M110.44,176.48l4.24-3.76l-0.13-0.13c-2.18-2.1-3.51-3.38-5.89-5.52l-3.96,3.6C107.24,172.99,108.81,174.58,110.44,176.48z
		 M142.72,186.8c-1.49-0.41-2.8-0.85-4.18-1.31l-0.72-0.24c-0.17,2.08-0.43,3.17-0.7,4.18c-0.33,1.32-1.32,1.43-2.38,1.43h-8.34
		c-1.64,0-2.3-0.66-2.3-2.26v-8.09h7.75v3.1h-4.99l-2.08,3.6h11.94v-6.89l0.21,0.19c1.21,1.08,2.59,2.14,4.23,3.22
		c0.99-1.73,1.91-2.9,3.3-4.5c-3.25-1.17-5.73-2.94-8.01-5.72l-0.17-0.2h6.8v-4.19h-6.75v-3.56h4.82v-4.19h-4.82v-4.48h-4.78v4.48
		h-5.07v-4.48h-4.78v4.48h-4.82v1.39l-0.22-0.23c-1.63-1.75-2.98-3.01-4.98-4.84l-4.04,3.4c2.33,2.09,3.89,3.86,5.48,5.85l3.76-3.43
		v2.06h4.82v3.56H115v3.55v0.11v0.53h6.82l-0.15,0.2c-2.17,2.93-4.64,4.98-7.55,6.27l-0.06,0.03l-2.18-1.2
		c-2.38,5.69-4.3,9.43-6.59,13.55l5.21,2.56c0.77-1.87,1.42-3.51,2.06-5.1c0.9-2.26,1.75-4.4,2.77-6.77l0.09-0.21l0.13,0.18
		c0.32,0.46,0.63,0.93,0.89,1.34c0.96-0.59,1.9-1.24,2.78-1.91l0.2-0.16v8.31c0.04,3.54,1.26,4.74,4.82,4.74h12.11
		c3.44,0,4.69-0.79,5.33-3.38C142.04,190.16,142.33,188.81,142.72,186.8z M126.48,165.56h5.07v3.56h-5.07V165.56z M124.58,176.71
		c0.75-1.03,1.46-2.15,2.1-3.34l0.04-0.07h4.54l0.04,0.06c0.67,1.21,1.37,2.31,2.14,3.34l0.15,0.2h-9.14L124.58,176.71z
		 M187.96,185.12l-0.06-0.07l0.05-0.08c2.59-4.3,3.96-9.45,4.3-16.22l0.01-0.12h2.11v-4.28h-11.3l0.06-0.17
		c0.77-2.24,1.43-4.56,2.04-7.1l-5.52-0.68c-1.1,6.37-3.76,14.65-6.79,18.36c0.47,0.34,0.92,0.64,1.36,0.94l0.51,0.34l0,0
		c0.76,0.52,1.41,1,2.08,1.61c0.35-0.58,0.71-1.2,1.1-1.9l0.15-0.27l0.08,0.3c0.95,3.69,2.09,6.65,3.58,9.32l0.04,0.08l-0.06,0.07
		c-1.83,2.11-4.11,3.91-6.99,5.49l-0.19,0.1v-14.8h-5.99v-7.37h7.29v-4.36h-7.29v-7.29h-5.36v7.29h-6.95v4.36h6.95v7.37h-5.4v18.44
		h4.86v-14.25h6.87v10.22h-6.1l2.32,4.02h8.81v-2.59l0.22,0.24c0.85,0.93,1.41,1.72,2.12,2.72l0.34,0.47c2.91-1.79,5.3-3.69,7.3-5.8
		l0.1-0.1l0.09,0.11c1.57,1.96,3.52,3.95,5.96,6.08c0.83-0.94,1.62-1.71,2.47-2.54c0.61-0.6,1.25-1.22,1.96-1.96
		C192.15,189.26,189.83,187.3,187.96,185.12z M187.36,168.76c-0.19,4.5-0.99,8.25-2.46,11.46l-0.11,0.23l-0.12-0.23
		c-1.61-3.13-2.71-6.81-3.38-11.26l-0.01-0.04l0.13-0.29h5.95V168.76z M285.03,191.72c-4.58-0.76-8.11-2.24-10.79-4.52l-0.08-0.06
		l0.06-0.08c2.5-2.93,4.17-6.52,5.11-10.98l0.02-0.08h4.58v-3.27h-10.6v-4.26h-3.85v4.26H259V176h5.17l0.02,0.08
		c0.91,4.46,2.48,8.04,4.82,10.94l0.06,0.08l-0.08,0.06c-2.75,2.24-6.35,3.87-11.02,4.98c0.33,0.4,0.63,0.76,0.93,1.12
		c0.58,0.69,1.14,1.34,1.82,2.24c4.63-1.69,8.06-3.52,10.78-5.77l0.06-0.05l0.06,0.06c2.76,2.38,6.33,4.26,10.93,5.74
		c0.64-1.1,1.17-1.87,1.89-2.93C284.64,192.28,284.83,192.01,285.03,191.72z M271.69,184.45l-0.08-0.11
		c-1.57-2.17-2.76-4.86-3.63-8.22l-0.03-0.12h7.36l-0.02,0.12c-0.58,3.19-1.77,5.96-3.52,8.22L271.69,184.45z M322.03,184.75
		c-0.13,2.08-0.28,4.05-0.57,5.29c-0.31,1.29-0.95,1.29-1.83,1.29h-1.82c-1.06,0-1.52-0.45-1.52-1.52v-6.91l0.04-0.03
		c3.41-2.58,6.41-5.36,8.91-8.26l-3.47-2.2c-1.25,1.85-3.08,3.87-5.32,5.84l-0.17,0.15v-9.99h-3.56v12.81l-0.04,0.03
		c-1.65,1.18-3.36,2.23-5.08,3.13l-0.15,0.08l0.01-9.21c0.78-1.52,1.56-3.18,2.5-5.34l-3.65-1.37c-1.44,4.66-4.46,10.02-7.4,13.1
		l0.27,0.29c1.01,1.1,1.49,1.62,2.26,2.58c0.87-1.1,1.64-2.14,2.38-3.2l0.18-0.26v13.94h3.45v-10.27l0.18,0.25
		c0.25,0.35,0.5,0.65,0.73,0.94c0.39,0.49,0.76,0.96,1.13,1.55c1.03-0.61,2.06-1.25,3.07-1.92l0.16-0.1v4.7
		c0,3.97,0.85,4.5,4.21,4.5h4.55c1.84,0,3.01-0.47,3.55-2.85c0.36-1.63,0.63-3.52,0.8-5.78c-1.39-0.3-2.4-0.71-3.69-1.22
		L322.03,184.75z M342.73,194.9H346v-15.98h2.08v-3.1H346v-6.98h-3.27v6.98h-3.01v3.1h3.01V194.9z M362.65,190.66v-2.01h4.05v-2.49
		h-4.05v-1.18h2.11l0.03-10.54h-6.48v-1.1h7.73v-2.41h-2.08l-0.02-0.07c-0.25-0.83-0.48-1.49-0.92-2.51l-3.1,0.93
		c0.3,0.62,0.5,1.05,0.7,1.52l0.06,0.14h-2.36v-2.46h-2.96v2.46h-7.58v2.41h7.58v1.1h-6.51v11.09h2.87v-1.91h3.65v1.74h2.96v-1.74
		h3.53v1.24h-2.46v1.3h-12.16v2.49h5.99l-2.94,1.33c0.88,1.34,1.36,2.38,1.87,3.48l0.17,0.37l3.24-1.45
		c-0.53-1.21-1.13-2.35-1.91-3.57l-0.1-0.15h5.83v1.61c0,1.07-0.35,1.43-1.37,1.43h-2c0.41,1.05,0.7,2.13,0.89,3.3
		C362.42,194.54,362.65,193.71,362.65,190.66z M355.35,181.61h-3.65v-1.47h3.65V181.61z M355.35,178.14h-3.65v-1.47h3.65V178.14z
		 M358.3,176.66h3.56l-0.01,1.47h-3.55V176.66z M358.3,181.61v-1.47h3.55l-0.01,1.47H358.3z M407.24,172.9H396.7l0.04-0.13
		c0.36-1.07,0.72-2.23,1.15-3.66l-3.59-0.96c-0.4,2.36-1.16,5.07-2.04,7.28l-0.19,0.48v-1.47h-2.52v-5.93h-3.27v5.93h-1.21
		l0.22-1.44c0.09-0.6,0.19-1.2,0.28-1.81l-3.18-0.3c-0.25,4.2-0.72,7.21-1.5,9.72c0.38,0.08,0.81,0.13,1.25,0.19
		c0.59,0.08,1.19,0.15,1.73,0.29c0.23-1.02,0.45-2.15,0.69-3.54l0.01-0.08h1.7v5.39l-0.07,0.02c-1.72,0.63-3.49,1.28-5.09,1.81
		l1.26,3.51c1.17-0.55,2.43-1.13,3.75-1.71l0.14-0.06v8.73h3.27v-6.36l0.23,0.13c0.99,0.57,1.72,0.99,2.59,1.7
		c3.94-4.02,6.04-8.57,6.79-14.73l0.01-0.09h1.02v0.1c-0.23,7.62-2.58,12.64-7.83,16.75c1.09,0.64,2.04,1.2,2.98,2.05
		c5.2-4.83,7.13-9.59,7.66-18.8l0.01-0.09h0.89l-0.05,1.76c-0.1,3.77-0.23,8.47-0.51,11.96c-0.15,1.81-0.96,1.94-2.1,1.94h-2.32
		c0.47,1.23,0.79,2.1,1.09,3.45c5.63-0.17,6.51-0.79,6.71-4.62C407.05,184.45,407.16,179.49,407.24,172.9z M396.37,175.91
		c-0.74,5.25-3.16,9.86-6.65,12.64l-0.16,0.13v-3.69l0.06-0.03c1.06-0.45,2.1-0.88,3.1-1.28c-0.31-1.08-0.5-1.96-0.65-2.91
		c-0.69,0.23-1.45,0.5-2.38,0.83l-0.13,0.05v-4.2h1.8l-0.08,0.15c-0.33,0.63-0.65,1.18-0.98,1.67c1.27,0.41,2.18,0.84,3,1.41
		c0.87-1.52,1.61-3.05,2.31-4.81l0.03-0.06h0.74L396.37,175.91z M446.5,184.51v-7.38h-11.52v17.57h12.36v-8.31h-9.21v-1.88
		L446.5,184.51L446.5,184.51z M438.14,179.79h5.15v2.2h-5.15V179.79z M444.07,188.91v3.04h-5.93v-3.04H444.07z M442.71,171.48v-3.04
		h-3.79v3.04h-5.82v1.55l-0.16-0.12c-0.97-0.75-1.89-1.4-2.85-2.08l-0.39-0.28l0.04-0.08c0.17-0.34,0.34-0.69,0.52-1.06l-3.07-1.14
		c-1,2.86-3.27,6.52-5.56,8.98c0.7,0.6,1.41,1.34,2.17,2.25l0.51-0.65v12.74l-1.27,0.41l1.33,2.9c1.64-0.74,3.54-1.51,5.38-2.26
		l1.19-0.48l0.04,0.08c0.27,0.55,0.52,1.06,0.74,1.55l2.63-1.49c-1.13-2.12-1.89-3.36-2.96-5.03l-0.1-0.15h1.5v-9.76h-2.61v-2.43
		h-2.96v2.43h-1.79l0.12-0.16c0.59-0.79,1.06-1.45,1.49-2.09l0.13-0.19l0,0l0.1-0.16c0.41-0.62,0.78-1.22,1.14-1.84l0.06-0.1
		l0.38,0.31c1.04,0.85,2.02,1.65,3.02,2.58l1.24-1.53v2.51h3.07v-2.52h8.74v2.52h3.33v-5.21L442.71,171.48L442.71,171.48z
		 M427.22,179.53h2.72v1.65h-2.72V179.53z M427.22,183.29h2.72v1.65h-2.72V183.29z M427.22,187.11h3.8l-2.28,1.04
		c0.28,0.48,0.57,0.98,0.91,1.58l0.06,0.11l-2.49,0.8V187.11z M112.23,221.3c0,5.01,3.24,8.19,8.42,8.19c0.73,0,1.59-0.1,2.37-0.24
		c-0.11,2.91-1.5,4.16-4.62,4.16c-1.59,0-3.11-0.34-4.62-1.04v4.47c1.5,0.5,2.98,0.72,4.66,0.72c3.79,0,6.46-1.19,8-3.6
		c1.06-1.64,1.41-3.63,1.41-7.87v-2.06v-1.69v-8.39c-2.41-0.48-4.43-0.71-6.55-0.71C115.38,213.24,112.23,216.04,112.23,221.3z
		 M122.87,225.32c-0.67,0.13-1.06,0.16-1.54,0.16c-2.57,0-4.05-1.51-4.05-4.18s1.35-4.08,3.89-4.08c0.58,0,1,0.03,1.7,0.19
		C122.87,217.41,122.87,225.32,122.87,225.32z M68.97,206.37v22.93h5.3v-22.93H68.97z M84.87,213.15c-5.04,0-8.19,3.24-8.19,8.45
		c0,5.01,3.05,8.13,8,8.13c5.01,0,8.16-3.24,8.16-8.42C92.83,216.26,89.81,213.15,84.87,213.15z M84.77,225.77
		c-1.93,0-3.05-1.61-3.05-4.37s1.12-4.37,3.08-4.37c1.9,0,2.99,1.64,2.99,4.37C87.79,224.16,86.67,225.77,84.77,225.77z
		 M103.02,213.21c-2.44,0-4.85,0.35-7.77,1.12v14.97h4.98v-11.76c1-0.22,1.61-0.29,2.28-0.29c1.73,0,2.38,0.67,2.38,2.54v9.51h4.95
		v-9.7c0-2.47-0.32-3.63-1.35-4.69C107.38,213.79,105.55,213.21,103.02,213.21z M196.91,221.3c0,5.01,3.24,8.19,8.42,8.19
		c0.73,0,1.59-0.1,2.37-0.24c-0.11,2.91-1.5,4.16-4.62,4.16c-1.59,0-3.11-0.34-4.62-1.04v4.47c1.5,0.5,2.98,0.72,4.66,0.72
		c3.79,0,6.46-1.19,8-3.6c1.06-1.64,1.41-3.63,1.41-7.87v-2.06v-1.69v-8.39c-2.41-0.48-4.43-0.71-6.55-0.71
		C200.06,213.24,196.91,216.04,196.91,221.3z M207.55,225.32c-0.67,0.13-1.06,0.16-1.54,0.16c-2.57,0-4.05-1.51-4.05-4.18
		s1.35-4.08,3.89-4.08c0.58,0,1,0.03,1.7,0.19V225.32z M187.7,213.21c-2.44,0-4.85,0.35-7.77,1.12v14.97h4.98v-11.76
		c1-0.22,1.61-0.29,2.28-0.29c1.73,0,2.38,0.67,2.38,2.54v9.51h4.95v-9.7c0-2.47-0.32-3.63-1.35-4.69
		C192.06,213.79,190.23,213.21,187.7,213.21z M169.55,213.15c-5.04,0-8.19,3.24-8.19,8.45c0,5.01,3.05,8.13,8,8.13
		c5.01,0,8.16-3.24,8.16-8.42C177.51,216.26,174.49,213.15,169.55,213.15z M169.45,225.77c-1.93,0-3.05-1.61-3.05-4.37
		s1.12-4.37,3.08-4.37c1.9,0,2.99,1.64,2.99,4.37C172.47,224.16,171.35,225.77,169.45,225.77z M160.48,206.37h-6.34l-6.62,11.46
		l7.37,11.47h6.79l-8.23-11.63L160.48,206.37z M140.9,229.3h5.3v-22.93h-5.3V229.3z M340.66,221.33h-0.06l-5.28-14.97h-7.64v22.93
		h5.05V211.7h0.06l5.8,17.59h3.85l6.02-17.59h0.06v17.59h5.05v-22.93h-7.61L340.66,221.33z M441.94,213.21
		c-1.96,0-3.57,0.32-5.56,1.12c-1.45-0.84-2.63-1.12-4.66-1.12c-2.31,0-4.43,0.32-7.07,1.06v15.03h4.98v-11.76
		c0.84-0.26,1.45-0.35,2.18-0.35c1.61,0,2.28,0.67,2.28,2.31v9.8h4.98v-9.96c0-0.84-0.06-1.22-0.19-1.7
		c0.77-0.32,1.41-0.45,2.18-0.45c1.51,0,2.18,0.67,2.18,2.25v9.86h4.98v-10.09c0-2.25-0.39-3.47-1.41-4.46
		C445.77,213.72,444.13,213.21,441.94,213.21z M366.59,225.06c-0.64,0.16-1.32,0.26-1.99,0.26c-1.93,0-2.51-0.64-2.51-2.7v-9.06
		h-4.98v8.99c0,2.92,0.42,4.27,1.61,5.36c1.16,1.06,2.99,1.57,5.65,1.57c2.02,0,3.92-0.19,6.58-0.67l0.61-0.1v-15.16h-4.98v11.51
		H366.59z M397,213.18c-4.79,0-7.93,3.31-7.93,8.38c0,5.11,3.08,8.09,8.35,8.09c2.12,0,4.08-0.48,5.97-1.48v-3.82
		c-1.51,1.03-3.31,1.57-5.27,1.57c-2.6,0-4.11-1.09-4.27-3.08h10.31l0.03-0.35c0.03-0.51,0.03-0.93,0.03-1.19
		C404.23,216.13,401.6,213.18,397,213.18z M393.92,219.54c0.26-1.77,1.41-2.86,3.08-2.86c1.61,0,2.54,1,2.7,2.86H393.92z
		 M416.12,225.06c-0.64,0.16-1.32,0.26-1.99,0.26c-1.93,0-2.51-0.64-2.51-2.7v-9.06h-4.98v8.99c0,2.92,0.42,4.27,1.61,5.36
		c1.16,1.06,2.99,1.57,5.65,1.57c2.02,0,3.92-0.19,6.58-0.67l0.61-0.1v-15.16h-4.98v11.51H416.12z M382.67,219.89
		c-0.83-0.39-1.48-0.71-1.96-0.93c-0.22-0.1-0.42-0.22-0.55-0.35c-0.16-0.16-0.26-0.39-0.26-0.61c0-0.67,0.77-1.06,2.15-1.06
		c1.41,0,2.6,0.32,4.08,1.06v-3.92c-1.54-0.64-2.86-0.9-4.43-0.9c-4.11,0-6.62,1.89-6.62,4.98c0,2.25,0.96,3.4,4.01,4.82l1.99,0.93
		c0.51,0.23,0.77,0.55,0.77,0.96c0,0.67-0.71,1.03-2.02,1.03c-1.61,0-2.99-0.39-4.75-1.28v4.08c1.57,0.67,3.08,0.96,4.95,0.96
		c4.4,0,6.68-1.7,6.68-5.01C386.72,222.46,385.76,221.3,382.67,219.89z M307.38,213.18c-4.79,0-7.93,3.31-7.93,8.38
		c0,5.11,3.08,8.09,8.35,8.09c2.12,0,4.08-0.48,5.97-1.48v-3.82c-1.51,1.03-3.31,1.57-5.27,1.57c-2.6,0-4.11-1.09-4.27-3.08h10.31
		l0.03-0.35c0.03-0.51,0.03-0.93,0.03-1.19C314.61,216.13,311.97,213.18,307.38,213.18z M304.3,219.54
		c0.26-1.77,1.41-2.86,3.08-2.86c1.61,0,2.54,1,2.7,2.86H304.3z M251.15,213.21c-2.28,0-4.37,0.45-6.55,1.48v3.82
		c1.93-1.03,3.98-1.57,5.81-1.57c1.25,0,1.7,0.35,1.7,1.28v1.09c-6.07,0.51-8.54,2.12-8.54,5.59c0,3.21,1.86,4.66,6.01,4.66
		c2.06,0,4.85-0.23,7.07-0.55v-10.05c0-2.06-0.13-3.02-0.55-3.76C255.36,213.88,253.69,213.21,251.15,213.21z M252.25,225.86
		c-0.93,0.16-1.57,0.22-2.28,0.22c-1.35,0-1.96-0.45-1.96-1.41c0-1.29,1.03-1.8,4.24-2.12V225.86z M234.09,206.37h-8.52v1.66v21.27
		h5.05v-8.4v-5.48v-4.78h2.59c1.94,0,4.34,0.32,4.34,2.69c0,2.14-1.78,2.75-3.56,2.75h-0.24l-2.47,4.28h3.03
		c4.83,0,8.49-1.65,8.49-7.03C242.81,207.89,238.86,206.37,234.09,206.37z M260.18,229.3h4.98v-22.93h-4.98V229.3z M275.71,213.21
		c-2.28,0-4.37,0.45-6.55,1.48v3.82c1.93-1.03,3.98-1.57,5.81-1.57c1.25,0,1.7,0.35,1.7,1.28v1.09c-6.07,0.51-8.54,2.12-8.54,5.59
		c0,3.21,1.86,4.66,6.01,4.66c2.06,0,4.85-0.23,7.07-0.55v-10.05c0-2.06-0.13-3.02-0.55-3.76
		C279.92,213.88,278.25,213.21,275.71,213.21z M276.8,225.86c-0.93,0.16-1.57,0.22-2.28,0.22c-1.35,0-1.96-0.45-1.96-1.41
		c0-1.29,1.03-1.8,4.24-2.12V225.86z M288.62,221.2c0-2.47,1.93-4.05,4.82-4.05c1.32,0,2.31,0.26,3.44,0.9v-4.01
		c-1.54-0.67-2.7-0.93-4.3-0.93c-5.33,0-8.96,3.4-8.96,8.45c0,4.91,3.31,8,8.58,8c1.93,0,3.24-0.32,4.85-1.12v-4.01
		c-1.28,0.71-2.25,0.96-3.6,0.96C290.52,225.38,288.62,223.74,288.62,221.2z M213.88,164.72h25.6v6.12h5.16v-10.27h-15.08v-3.65
		h-5.78v3.65H208.7v10.27h5.2v-6.12H213.88z M211.82,181.77v13.32h29.67v-13.32H227.1l0.88-3.35h9.77l-0.04-11.06h-16.72l2.07,3.56
		h9.92v3.98h-12.65v-3.98l0,0l0.02-3.56h-4.79v11.06h7.58l-0.88,3.35L211.82,181.77L211.82,181.77z M235.79,185.37v5.86H217
		l0.03-5.87L235.79,185.37L235.79,185.37z"/>
	<g>
		<polygon class="st1" points="201.21,137.78 20.97,137.78 0,0 244.63,0 		"/>
		<polygon class="st1" points="21.09,137.64 0.16,0.14 244.44,0.14 201.11,137.64 		"/>
		<g>
			
				<linearGradient id="SVGID_1_" gradientUnits="userSpaceOnUse" x1="-330.796" y1="1889.257" x2="-345.1104" y2="1903.5714" gradientTransform="matrix(0 1 1 0 -1885.6611 366.7701)">
				<stop  offset="3.738020e-07" style="stop-color:#EA8B1B"/>
				<stop  offset="1" style="stop-color:#FFDE4F"/>
			</linearGradient>
			<rect x="5.22" y="30.46" class="st2" width="0" height="7.78"/>
			
				<linearGradient id="SVGID_00000053538337719683933350000017063923865349509253_" gradientUnits="userSpaceOnUse" x1="-304.5376" y1="1886.8835" x2="-318.8526" y2="1901.1986" gradientTransform="matrix(0 1 1 0 -1885.6611 366.7701)">
				<stop  offset="3.738020e-07" style="stop-color:#EA8B1B"/>
				<stop  offset="1" style="stop-color:#FFDE4F"/>
			</linearGradient>
			<polygon style="fill:url(#SVGID_00000053538337719683933350000017063923865349509253_);" points="5.81,38.19 5.81,38.19 
				10.95,71.95 10.95,71.96 			"/>
			
				<linearGradient id="SVGID_00000114791877739753165800000013209574156053174669_" gradientUnits="userSpaceOnUse" x1="-270.7701" y1="1892.0211" x2="-285.0902" y2="1906.3411" gradientTransform="matrix(0 1 1 0 -1885.6611 366.7701)">
				<stop  offset="3.738020e-07" style="stop-color:#EA8B1B"/>
				<stop  offset="1" style="stop-color:#FFDE4F"/>
			</linearGradient>
			<polygon style="fill:url(#SVGID_00000114791877739753165800000013209574156053174669_);" points="10.95,71.96 10.95,71.95 
				16.08,105.72 16.09,105.73 			"/>
			
				<linearGradient id="SVGID_00000164474819004983216900000002217565402783526545_" gradientUnits="userSpaceOnUse" x1="-237.5" y1="1896.6659" x2="-251.8145" y2="1910.9805" gradientTransform="matrix(0 1 1 0 -1885.6611 366.7701)">
				<stop  offset="3.738020e-07" style="stop-color:#EA8B1B"/>
				<stop  offset="1" style="stop-color:#FFDE4F"/>
			</linearGradient>
			<polygon style="fill:url(#SVGID_00000164474819004983216900000002217565402783526545_);" points="16.08,105.72 20.96,137.78 
				20.97,137.78 16.09,105.73 			"/>
			
				<linearGradient id="SVGID_00000058562289199019671400000004938471398804990362_" gradientUnits="userSpaceOnUse" x1="-1852.4117" y1="1515.8535" x2="-1866.7263" y2="1530.1681" gradientTransform="matrix(-1 0 0 1 -1820.7543 -1518.891)">
				<stop  offset="3.738020e-07" style="stop-color:#EA8B1B"/>
				<stop  offset="1" style="stop-color:#FFDE4F"/>
			</linearGradient>
			<polygon style="fill:url(#SVGID_00000058562289199019671400000004938471398804990362_);" points="40.77,0 28.62,0 28.62,0 			"/>
			
				<linearGradient id="SVGID_00000121263078504792541770000003096901553974205601_" gradientUnits="userSpaceOnUse" x1="-1823.3342" y1="1544.931" x2="-1837.6488" y2="1559.2456" gradientTransform="matrix(-1 0 0 1 -1820.7543 -1518.891)">
				<stop  offset="3.738020e-07" style="stop-color:#EA8B1B"/>
				<stop  offset="1" style="stop-color:#FFDE4F"/>
			</linearGradient>
			<polygon style="fill:url(#SVGID_00000121263078504792541770000003096901553974205601_);" points="3.78,24.84 3.78,24.84 
				4.64,30.5 4.64,30.5 			"/>
			
				<linearGradient id="SVGID_00000159470717071129164360000008241505732213700756_" gradientUnits="userSpaceOnUse" x1="-1815.4893" y1="1524.156" x2="-1829.7993" y2="1538.4659" gradientTransform="matrix(-1 0 0 1 -1820.7543 -1518.891)">
				<stop  offset="3.738020e-07" style="stop-color:#EA8B1B"/>
				<stop  offset="1" style="stop-color:#FFDE4F"/>
			</linearGradient>
			<polygon style="fill:url(#SVGID_00000159470717071129164360000008241505732213700756_);" points="0,0 3.78,24.84 3.78,24.84 			
				"/>
			
				<linearGradient id="SVGID_00000127037686245016563100000010875322939938320528_" gradientUnits="userSpaceOnUse" x1="-1827.9093" y1="1511.736" x2="-1842.2192" y2="1526.046" gradientTransform="matrix(-1 0 0 1 -1820.7543 -1518.891)">
				<stop  offset="3.738020e-07" style="stop-color:#EA8B1B"/>
				<stop  offset="1" style="stop-color:#FFDE4F"/>
			</linearGradient>
			<path style="fill:url(#SVGID_00000127037686245016563100000010875322939938320528_);" d="M28.62,0H0H28.62z"/>
			
				<linearGradient id="SVGID_00000020376562011233356210000008284971063669436845_" gradientUnits="userSpaceOnUse" x1="-1633.1471" y1="-147.8621" x2="-1647.4617" y2="-133.5476" gradientTransform="matrix(0 -1 -1 0 64.9068 -1645.6611)">
				<stop  offset="3.738020e-07" style="stop-color:#EA8B1B"/>
				<stop  offset="1" style="stop-color:#FFDE4F"/>
			</linearGradient>
			<polygon style="fill:url(#SVGID_00000020376562011233356210000008284971063669436845_);" points="203.86,0 196.65,0 196.65,0 			
				"/>
			
				<linearGradient id="SVGID_00000000926197015555922900000012948183140938887335_" gradientUnits="userSpaceOnUse" x1="-1645.6611" y1="-179.7232" x2="-1645.6611" y2="-179.7232" gradientTransform="matrix(0 -1 -1 0 64.9068 -1645.6611)">
				<stop  offset="3.738020e-07" style="stop-color:#EA8B1B"/>
				<stop  offset="1" style="stop-color:#FFDE4F"/>
			</linearGradient>
			<path style="fill:url(#SVGID_00000000926197015555922900000012948183140938887335_);" d="M244.63,0L244.63,0L244.63,0z"/>
			
				<linearGradient id="SVGID_00000028313471732617406870000018089963362415100034_" gradientUnits="userSpaceOnUse" x1="-1638.8535" y1="-39.0557" x2="-1653.168" y2="-24.7412" gradientTransform="matrix(0 -1 -1 0 64.9068 -1645.6611)">
				<stop  offset="3.738020e-07" style="stop-color:#EA8B1B"/>
				<stop  offset="1" style="stop-color:#FFDE4F"/>
			</linearGradient>
			<path style="fill:url(#SVGID_00000028313471732617406870000018089963362415100034_);" d="M110.77,0H83.54H110.77z"/>
			
				<linearGradient id="SVGID_00000161601096404992657000000009533870992003038363_" gradientUnits="userSpaceOnUse" x1="-1634.2356" y1="-63.0637" x2="-1648.5502" y2="-48.7491" gradientTransform="matrix(0 -1 -1 0 64.9068 -1645.6611)">
				<stop  offset="3.738020e-07" style="stop-color:#EA8B1B"/>
				<stop  offset="1" style="stop-color:#FFDE4F"/>
			</linearGradient>
			<polygon style="fill:url(#SVGID_00000161601096404992657000000009533870992003038363_);" points="122.32,0 110.77,0 110.77,0 			
				"/>
			
				<linearGradient id="SVGID_00000108277939948334661660000010106170557835740588_" gradientUnits="userSpaceOnUse" x1="-1641.4136" y1="-127.4957" x2="-1655.7281" y2="-113.1812" gradientTransform="matrix(0 -1 -1 0 64.9068 -1645.6611)">
				<stop  offset="3.738020e-07" style="stop-color:#EA8B1B"/>
				<stop  offset="1" style="stop-color:#FFDE4F"/>
			</linearGradient>
			<path style="fill:url(#SVGID_00000108277939948334661660000010106170557835740588_);" d="M196.65,0h-16.99H196.65z"/>
			<polygon class="st15" points="244.63,0 203.86,0 225.28,0 			"/>
			<polygon class="st15" points="82.14,0 83.54,0 40.77,0 55.38,0 			"/>
			<polygon class="st15" points="244.63,0 239.99,14.71 235.01,30.5 225.45,60.84 212.26,102.65 201.2,137.78 201.21,137.78 			"/>
			<polygon class="st15" points="168.02,0 179.66,0 122.32,0 139.4,0 			"/>
			
				<linearGradient id="SVGID_00000173855982556026381410000005520295936408043165_" gradientUnits="userSpaceOnUse" x1="148.7263" y1="102.3887" x2="134.3845" y2="116.7305" gradientTransform="matrix(1 0 0 -1 0 240)">
				<stop  offset="3.738020e-07" style="stop-color:#EA8B1B"/>
				<stop  offset="1" style="stop-color:#FFDE4F"/>
			</linearGradient>
			<polygon style="fill:url(#SVGID_00000173855982556026381410000005520295936408043165_);" points="143.61,114.04 135.88,121.77 
				130.44,137.78 143.61,137.78 143.61,135.94 			"/>
			
				<linearGradient id="SVGID_00000034073799761700160610000014798078570034013356_" gradientUnits="userSpaceOnUse" x1="199.98" y1="153.65" x2="185.64" y2="167.99" gradientTransform="matrix(1 0 0 -1 0 240)">
				<stop  offset="3.738020e-07" style="stop-color:#EA8B1B"/>
				<stop  offset="1" style="stop-color:#FFDE4F"/>
			</linearGradient>
			<polygon style="fill:url(#SVGID_00000034073799761700160610000014798078570034013356_);" points="154.54,103.11 154.54,131.79 
				225.45,60.84 235.01,30.5 227.15,30.5 			"/>
			
				<linearGradient id="SVGID_00000110458925412011844390000015241861361382946958_" gradientUnits="userSpaceOnUse" x1="202.8325" y1="127.8524" x2="188.4874" y2="142.1976" gradientTransform="matrix(1 0 0 -1 0 240)">
				<stop  offset="3.738020e-07" style="stop-color:#EA8B1B"/>
				<stop  offset="1" style="stop-color:#FFDE4F"/>
			</linearGradient>
			<polygon style="fill:url(#SVGID_00000110458925412011844390000015241861361382946958_);" points="225.45,60.84 154.54,131.79 
				154.54,135.94 154.54,137.78 177.2,137.78 212.26,102.65 			"/>
			
				<linearGradient id="SVGID_00000129905021585033821220000000461678372124805821_" gradientUnits="userSpaceOnUse" x1="209.0741" y1="105.4409" x2="194.7135" y2="119.8015" gradientTransform="matrix(1 0 0 -1 0 240)">
				<stop  offset="3.738020e-07" style="stop-color:#EA8B1B"/>
				<stop  offset="1" style="stop-color:#FFDE4F"/>
			</linearGradient>
			<polygon style="fill:url(#SVGID_00000129905021585033821220000000461678372124805821_);" points="177.2,137.78 201.2,137.78 
				212.26,102.65 			"/>
			
				<linearGradient id="SVGID_00000129894628604098938200000005548229128735387790_" gradientUnits="userSpaceOnUse" x1="75.4125" y1="200.9025" x2="61.098" y2="215.217" gradientTransform="matrix(1 0 0 -1 0 240)">
				<stop  offset="3.738020e-07" style="stop-color:#EA8B1B"/>
				<stop  offset="1" style="stop-color:#FFDE4F"/>
			</linearGradient>
			<polygon style="fill:url(#SVGID_00000129894628604098938200000005548229128735387790_);" points="66.81,30.5 66.81,47.69 
				84.01,30.5 			"/>
			
				<linearGradient id="SVGID_00000137093385834362351160000011107394439722054798_" gradientUnits="userSpaceOnUse" x1="82.7425" y1="179.6025" x2="68.4225" y2="193.9225" gradientTransform="matrix(1 0 0 -1 0 240)">
				<stop  offset="3.738020e-07" style="stop-color:#EA8B1B"/>
				<stop  offset="1" style="stop-color:#FFDE4F"/>
			</linearGradient>
			<polygon style="fill:url(#SVGID_00000137093385834362351160000011107394439722054798_);" points="66.81,47.69 66.81,51.24 
				81.85,51.24 76.53,60.52 66.81,60.52 66.81,76.32 84.7,58.44 84.7,30.5 84.01,30.5 84.01,30.5 			"/>
			
				<linearGradient id="SVGID_00000154408147090199576800000010918773934844791181_" gradientUnits="userSpaceOnUse" x1="104.3875" y1="201.2475" x2="90.073" y2="215.562" gradientTransform="matrix(1 0 0 -1 0 240)">
				<stop  offset="3.738020e-07" style="stop-color:#EA8B1B"/>
				<stop  offset="1" style="stop-color:#FFDE4F"/>
			</linearGradient>
			<polygon style="fill:url(#SVGID_00000154408147090199576800000010918773934844791181_);" points="96.13,47 112.64,30.5 
				96.13,30.5 			"/>
			
				<linearGradient id="SVGID_00000168819070213654032690000013215331633277975203_" gradientUnits="userSpaceOnUse" x1="59.12" y1="155.98" x2="44.8055" y2="170.2945" gradientTransform="matrix(1 0 0 -1 0 240)">
				<stop  offset="3.738020e-07" style="stop-color:#EA8B1B"/>
				<stop  offset="1" style="stop-color:#FFDE4F"/>
			</linearGradient>
			<polygon style="fill:url(#SVGID_00000168819070213654032690000013215331633277975203_);" points="55.38,80.28 55.38,87.76 
				62.86,80.28 			"/>
			
				<linearGradient id="SVGID_00000134239919455964043610000008095908859266410392_" gradientUnits="userSpaceOnUse" x1="118.7025" y1="186.9325" x2="104.3825" y2="201.2525" gradientTransform="matrix(1 0 0 -1 0 240)">
				<stop  offset="3.738020e-07" style="stop-color:#EA8B1B"/>
				<stop  offset="1" style="stop-color:#FFDE4F"/>
			</linearGradient>
			<polygon style="fill:url(#SVGID_00000134239919455964043610000008095908859266410392_);" points="96.13,75.63 105.78,65.99 
				99,55.38 113.27,30.5 126.96,30.5 111.8,55.03 113.84,57.93 141.27,30.5 112.64,30.5 96.13,47 			"/>
			
				<linearGradient id="SVGID_00000116198601902856620650000008329558174175644302_" gradientUnits="userSpaceOnUse" x1="70.42" y1="138.65" x2="56.1055" y2="152.9645" gradientTransform="matrix(1 0 0 -1 0 240)">
				<stop  offset="3.738020e-07" style="stop-color:#EA8B1B"/>
				<stop  offset="1" style="stop-color:#FFDE4F"/>
			</linearGradient>
			<path style="fill:url(#SVGID_00000116198601902856620650000008329558174175644302_);" d="M66.31,97.12v8.34l8.22-8.22
				c-0.88-0.09-1.77-0.12-2.61-0.12H66.31z"/>
			
				<linearGradient id="SVGID_00000017475622260382764770000012787945344117853355_" gradientUnits="userSpaceOnUse" x1="84.34" y1="152.58" x2="70.025" y2="166.895" gradientTransform="matrix(1 0 0 -1 0 240)">
				<stop  offset="3.738020e-07" style="stop-color:#EA8B1B"/>
				<stop  offset="1" style="stop-color:#FFDE4F"/>
			</linearGradient>
			<path style="fill:url(#SVGID_00000017475622260382764770000012787945344117853355_);" d="M84.7,58.44L66.81,76.32v3.95h-3.95
				l-7.48,7.48v0.05h18.43c3.24,0,6.31,0.33,9,1.15l8.68-8.68H84.7V58.44z"/>
			
				<linearGradient id="SVGID_00000157275594958476575230000006150083789394082202_" gradientUnits="userSpaceOnUse" x1="147.7801" y1="187.3799" x2="133.4649" y2="201.695" gradientTransform="matrix(1 0 0 -1 0 240)">
				<stop  offset="3.738020e-07" style="stop-color:#EA8B1B"/>
				<stop  offset="1" style="stop-color:#FFDE4F"/>
			</linearGradient>
			<polygon style="fill:url(#SVGID_00000157275594958476575230000006150083789394082202_);" points="125.66,74.74 169.9,30.5 
				141.27,30.5 113.84,57.93 			"/>
			
				<linearGradient id="SVGID_00000085952990994998683960000009487671904795376025_" gradientUnits="userSpaceOnUse" x1="78.4218" y1="118.0018" x2="64.0968" y2="132.3268" gradientTransform="matrix(1 0 0 -1 0 240)">
				<stop  offset="3.738020e-07" style="stop-color:#EA8B1B"/>
				<stop  offset="1" style="stop-color:#FFDE4F"/>
			</linearGradient>
			<path style="fill:url(#SVGID_00000085952990994998683960000009487671904795376025_);" d="M67.74,118.26l5.34-9.3h0.52
				c3.85,0,7.71-1.34,7.71-5.99c0-4.11-3.3-5.38-6.78-5.73l-8.22,8.22v2.07v11.92v14.66l17.12-17.12c-2.66,0.9-5.76,1.28-9.13,1.28
				L67.74,118.26L67.74,118.26z"/>
			
				<linearGradient id="SVGID_00000170253785320040163450000001465630962937425597_" gradientUnits="userSpaceOnUse" x1="106.02" y1="145.62" x2="91.7" y2="159.94" gradientTransform="matrix(1 0 0 -1 0 240)">
				<stop  offset="3.738020e-07" style="stop-color:#EA8B1B"/>
				<stop  offset="1" style="stop-color:#FFDE4F"/>
			</linearGradient>
			<path style="fill:url(#SVGID_00000170253785320040163450000001465630962937425597_);" d="M112.59,87.81l7.53-7.53h-5.22
				l-9.13-14.29l-9.64,9.64v4.64h-4.64l-8.68,8.68c5.84,1.78,9.85,5.89,9.85,14.01c0,2.1-0.26,3.92-0.74,5.52l6.57-6.57v-14.1
				H112.59z"/>
			
				<linearGradient id="SVGID_00000152248105268682845650000012506570381870866338_" gradientUnits="userSpaceOnUse" x1="95.805" y1="106.745" x2="81.48" y2="121.07" gradientTransform="matrix(1 0 0 -1 0 240)">
				<stop  offset="3.738020e-07" style="stop-color:#EA8B1B"/>
				<stop  offset="1" style="stop-color:#FFDE4F"/>
			</linearGradient>
			<path style="fill:url(#SVGID_00000152248105268682845650000012506570381870866338_);" d="M98.49,101.92l-6.57,6.57
				c-1.33,4.46-4.38,7.1-8.49,8.49L66.31,134.1v3.68h24.97l7.21-7.21V101.92z"/>
			
				<linearGradient id="SVGID_00000018232033851633596220000004308335471118525116_" gradientUnits="userSpaceOnUse" x1="114.5025" y1="125.4525" x2="100.1729" y2="139.7821" gradientTransform="matrix(1 0 0 -1 0 240)">
				<stop  offset="3.738020e-07" style="stop-color:#EA8B1B"/>
				<stop  offset="1" style="stop-color:#FFDE4F"/>
			</linearGradient>
			<polygon style="fill:url(#SVGID_00000018232033851633596220000004308335471118525116_);" points="109.42,99.44 109.42,119.63 
				114.5,114.55 109.56,99.44 			"/>
			
				<linearGradient id="SVGID_00000008123076147859539810000002403628013167773863_" gradientUnits="userSpaceOnUse" x1="160.1825" y1="171.1325" x2="145.8575" y2="185.4575" gradientTransform="matrix(1 0 0 -1 0 240)">
				<stop  offset="3.738020e-07" style="stop-color:#EA8B1B"/>
				<stop  offset="1" style="stop-color:#FFDE4F"/>
			</linearGradient>
			<polygon style="fill:url(#SVGID_00000008123076147859539810000002403628013167773863_);" points="129.56,80.28 120.13,80.28 
				112.59,87.81 115.02,87.81 121.83,107.22 136.36,92.68 138.08,87.81 141.23,87.81 198.52,30.5 169.9,30.5 169.9,30.5 
				125.66,74.74 			"/>
			
				<linearGradient id="SVGID_00000082353186489251789670000012809671380624271547_" gradientUnits="userSpaceOnUse" x1="110.3264" y1="90.3836" x2="94.8675" y2="105.8425" gradientTransform="matrix(1 0 0 -1 0 240)">
				<stop  offset="0.0716" style="stop-color:#EA8B1B"/>
				<stop  offset="0.9993" style="stop-color:#FFDE4F"/>
			</linearGradient>
			<polygon style="fill:url(#SVGID_00000082353186489251789670000012809671380624271547_);" points="91.28,137.78 98.49,137.78 
				98.49,130.57 			"/>
			
				<linearGradient id="SVGID_00000057150185312209804270000008625762878903673531_" gradientUnits="userSpaceOnUse" x1="122.8689" y1="102.9261" x2="107.41" y2="118.385" gradientTransform="matrix(1 0 0 -1 0 240)">
				<stop  offset="0.0716" style="stop-color:#EA8B1B"/>
				<stop  offset="0.9993" style="stop-color:#FFDE4F"/>
			</linearGradient>
			<polygon style="fill:url(#SVGID_00000057150185312209804270000008625762878903673531_);" points="114.5,114.55 109.42,119.63 
				109.42,134.9 109.42,134.9 109.42,137.78 119.92,137.78 121.55,136.1 			"/>
			
				<linearGradient id="SVGID_00000108273882824898629450000013995282164616731565_" gradientUnits="userSpaceOnUse" x1="142.4089" y1="122.4661" x2="126.95" y2="137.925" gradientTransform="matrix(1 0 0 -1 0 240)">
				<stop  offset="0.0716" style="stop-color:#EA8B1B"/>
				<stop  offset="0.9993" style="stop-color:#FFDE4F"/>
			</linearGradient>
			<polygon style="fill:url(#SVGID_00000108273882824898629450000013995282164616731565_);" points="126.45,120.38 126.59,120.38 
				136.36,92.68 121.83,107.22 			"/>
			
				<linearGradient id="SVGID_00000096056605470071685620000017058556275742991028_" gradientUnits="userSpaceOnUse" x1="191.9914" y1="172.0486" x2="176.5324" y2="187.5075" gradientTransform="matrix(1 0 0 -1 0 240)">
				<stop  offset="0.0716" style="stop-color:#EA8B1B"/>
				<stop  offset="0.9993" style="stop-color:#FFDE4F"/>
			</linearGradient>
			<polygon style="fill:url(#SVGID_00000096056605470071685620000017058556275742991028_);" points="154.54,87.81 154.54,103.11 
				227.15,30.5 198.52,30.5 141.23,87.81 			"/>
			
				<linearGradient id="SVGID_00000052823056666687037430000010757353105243769495_" gradientUnits="userSpaceOnUse" x1="144.5414" y1="124.5986" x2="129.0825" y2="140.0575" gradientTransform="matrix(1 0 0 -1 0 240)">
				<stop  offset="0.0716" style="stop-color:#EA8B1B"/>
				<stop  offset="0.9993" style="stop-color:#FFDE4F"/>
			</linearGradient>
			<polygon style="fill:url(#SVGID_00000052823056666687037430000010757353105243769495_);" points="143.47,99.44 135.88,121.77 
				143.61,114.04 143.61,99.44 			"/>
			
				<linearGradient id="SVGID_00000013906185957311782130000011440702193154349738_" gradientUnits="userSpaceOnUse" x1="135.3158" y1="88.4792" x2="120.7245" y2="103.0705" gradientTransform="matrix(1 0 0 -1 0 240)">
				<stop  offset="3.738020e-07" style="stop-color:#EA8B1B"/>
				<stop  offset="1" style="stop-color:#FFDE4F"/>
			</linearGradient>
			<polygon style="fill:url(#SVGID_00000013906185957311782130000011440702193154349738_);" points="119.92,137.78 122.1,137.78 
				121.55,136.1 			"/>
			<polygon class="st39" points="119.92,137.78 122.1,137.78 121.55,136.1 			"/>
			
				<linearGradient id="SVGID_00000005958995857232774110000008878149004102327431_" gradientUnits="userSpaceOnUse" x1="-321.9551" y1="1926.7261" x2="-336.2701" y2="1941.041" gradientTransform="matrix(0 1 1 0 -1885.6611 366.7701)">
				<stop  offset="3.738020e-07" style="stop-color:#EA8B1B"/>
				<stop  offset="1" style="stop-color:#FFDE4F"/>
			</linearGradient>
			<polygon style="fill:url(#SVGID_00000005958995857232774110000008878149004102327431_);" points="55.38,30.5 26.75,30.5 
				55.38,59.13 			"/>
			
				<linearGradient id="SVGID_00000006693142241854796410000002332058898880625543_" gradientUnits="userSpaceOnUse" x1="-306.0101" y1="1914.041" x2="-320.3251" y2="1928.3561" gradientTransform="matrix(0 1 1 0 -1885.6611 366.7701)">
				<stop  offset="3.738020e-07" style="stop-color:#EA8B1B"/>
				<stop  offset="1" style="stop-color:#FFDE4F"/>
			</linearGradient>
			<polygon style="fill:url(#SVGID_00000006693142241854796410000002332058898880625543_);" points="55.38,80.28 55.38,80.28 
				55.38,59.13 26.75,30.5 4.64,30.5 5.81,38.19 55.38,87.76 			"/>
			
				<linearGradient id="SVGID_00000156563759161864423360000008038744207668111006_" gradientUnits="userSpaceOnUse" x1="-282.3226" y1="1909.0985" x2="-296.6376" y2="1923.4136" gradientTransform="matrix(0 1 1 0 -1885.6611 366.7701)">
				<stop  offset="3.738020e-07" style="stop-color:#EA8B1B"/>
				<stop  offset="1" style="stop-color:#FFDE4F"/>
			</linearGradient>
			<polygon style="fill:url(#SVGID_00000156563759161864423360000008038744207668111006_);" points="55.38,87.81 55.38,87.81 
				55.38,87.76 5.81,38.19 10.95,71.96 55.38,116.39 55.38,91.43 			"/>
			
				<linearGradient id="SVGID_00000070077540675551377070000004067468257846602666_" gradientUnits="userSpaceOnUse" x1="-252.9276" y1="1909.8535" x2="-267.2477" y2="1924.1736" gradientTransform="matrix(0 1 1 0 -1885.6611 366.7701)">
				<stop  offset="3.738020e-07" style="stop-color:#EA8B1B"/>
				<stop  offset="1" style="stop-color:#FFDE4F"/>
			</linearGradient>
			<polygon style="fill:url(#SVGID_00000070077540675551377070000004067468257846602666_);" points="55.38,135.31 55.38,116.39 
				10.95,71.96 16.09,105.73 48.13,137.78 55.38,137.78 			"/>
			
				<linearGradient id="SVGID_00000088817275368118216080000001776973485265472397_" gradientUnits="userSpaceOnUse" x1="-230.7049" y1="1903.4609" x2="-245.0194" y2="1917.7754" gradientTransform="matrix(0 1 1 0 -1885.6611 366.7701)">
				<stop  offset="3.738020e-07" style="stop-color:#EA8B1B"/>
				<stop  offset="1" style="stop-color:#FFDE4F"/>
			</linearGradient>
			<polygon style="fill:url(#SVGID_00000088817275368118216080000001776973485265472397_);" points="20.97,137.78 48.13,137.78 
				16.09,105.73 			"/>
			
				<linearGradient id="SVGID_00000159440311985229153470000013876623164676741766_" gradientUnits="userSpaceOnUse" x1="-1861.8192" y1="1535.0759" x2="-1876.1343" y2="1549.391" gradientTransform="matrix(-1 0 0 1 -1820.7543 -1518.891)">
				<stop  offset="3.738020e-07" style="stop-color:#EA8B1B"/>
				<stop  offset="1" style="stop-color:#FFDE4F"/>
			</linearGradient>
			<polygon style="fill:url(#SVGID_00000159440311985229153470000013876623164676741766_);" points="55.38,30.5 55.38,1.87 
				55.38,1.87 26.75,30.5 			"/>
			
				<linearGradient id="SVGID_00000095326839935364637870000001269402822238237873_" gradientUnits="userSpaceOnUse" x1="-1842.4442" y1="1525.8209" x2="-1856.7593" y2="1540.136" gradientTransform="matrix(-1 0 0 1 -1820.7543 -1518.891)">
				<stop  offset="3.738020e-07" style="stop-color:#EA8B1B"/>
				<stop  offset="1" style="stop-color:#FFDE4F"/>
			</linearGradient>
			<polygon style="fill:url(#SVGID_00000095326839935364637870000001269402822238237873_);" points="3.78,24.84 4.64,30.5 
				26.75,30.5 55.38,1.87 55.38,0 40.77,0 28.62,0 			"/>
			
				<linearGradient id="SVGID_00000060717340210664206150000012445404862286932379_" gradientUnits="userSpaceOnUse" x1="-1822.6444" y1="1517.001" x2="-1836.9543" y2="1531.311" gradientTransform="matrix(-1 0 0 1 -1820.7543 -1518.891)">
				<stop  offset="3.738020e-07" style="stop-color:#EA8B1B"/>
				<stop  offset="1" style="stop-color:#FFDE4F"/>
			</linearGradient>
			<polygon style="fill:url(#SVGID_00000060717340210664206150000012445404862286932379_);" points="28.62,0 0,0 3.78,24.84 			"/>
			
				<linearGradient id="SVGID_00000045620981437567106060000012873857467722226872_" gradientUnits="userSpaceOnUse" x1="-1648.561" y1="-163.2732" x2="-1662.8761" y2="-148.9582" gradientTransform="matrix(0 -1 -1 0 64.9068 -1645.6611)">
				<stop  offset="3.738020e-07" style="stop-color:#EA8B1B"/>
				<stop  offset="1" style="stop-color:#FFDE4F"/>
			</linearGradient>
			<polygon style="fill:url(#SVGID_00000045620981437567106060000012873857467722226872_);" points="227.15,30.5 235.01,30.5 
				239.99,14.71 225.28,0 203.86,0 196.65,0 			"/>
			
				<linearGradient id="SVGID_00000163073268157414430300000013547389550872308916_" gradientUnits="userSpaceOnUse" x1="-1638.7002" y1="-182.0441" x2="-1653.0146" y2="-167.7296" gradientTransform="matrix(0 -1 -1 0 64.9068 -1645.6611)">
				<stop  offset="3.738020e-07" style="stop-color:#EA8B1B"/>
				<stop  offset="1" style="stop-color:#FFDE4F"/>
			</linearGradient>
			<polygon style="fill:url(#SVGID_00000163073268157414430300000013547389550872308916_);" points="239.99,14.71 244.63,0 
				244.63,0 225.28,0 			"/>
			
				<linearGradient id="SVGID_00000140709915761280301050000005597033146785902220_" gradientUnits="userSpaceOnUse" x1="-1661.8461" y1="-4.7882" x2="-1676.161" y2="9.5268" gradientTransform="matrix(0 -1 -1 0 64.9068 -1645.6611)">
				<stop  offset="3.738020e-07" style="stop-color:#EA8B1B"/>
				<stop  offset="1" style="stop-color:#FFDE4F"/>
			</linearGradient>
			<polygon style="fill:url(#SVGID_00000140709915761280301050000005597033146785902220_);" points="84.01,30.5 84.01,30.5 
				55.38,1.87 55.38,30.5 66.81,30.5 			"/>
			
				<linearGradient id="SVGID_00000014620700097911089630000002448731294650018459_" gradientUnits="userSpaceOnUse" x1="-1654.2211" y1="-25.7932" x2="-1668.5361" y2="-11.4782" gradientTransform="matrix(0 -1 -1 0 64.9068 -1645.6611)">
				<stop  offset="3.738020e-07" style="stop-color:#EA8B1B"/>
				<stop  offset="1" style="stop-color:#FFDE4F"/>
			</linearGradient>
			<polygon style="fill:url(#SVGID_00000014620700097911089630000002448731294650018459_);" points="84.01,30.5 84.7,30.5 
				85.71,30.5 92.95,30.5 96.13,30.5 112.64,30.5 82.14,0 55.38,0 55.38,1.87 55.38,1.87 			"/>
			
				<linearGradient id="SVGID_00000165950024548307343950000008013517750225592491_" gradientUnits="userSpaceOnUse" x1="-1653.7535" y1="-53.9558" x2="-1668.0686" y2="-39.6406" gradientTransform="matrix(0 -1 -1 0 64.9068 -1645.6611)">
				<stop  offset="3.738020e-07" style="stop-color:#EA8B1B"/>
				<stop  offset="1" style="stop-color:#FFDE4F"/>
			</linearGradient>
			<polygon style="fill:url(#SVGID_00000165950024548307343950000008013517750225592491_);" points="112.64,30.5 141.27,30.5 
				110.77,0 83.54,0 82.14,0 			"/>
			
				<linearGradient id="SVGID_00000029024506484876242120000005697981888065955970_" gradientUnits="userSpaceOnUse" x1="-1653.7535" y1="-82.5857" x2="-1668.0686" y2="-68.2707" gradientTransform="matrix(0 -1 -1 0 64.9068 -1645.6611)">
				<stop  offset="3.738020e-07" style="stop-color:#EA8B1B"/>
				<stop  offset="1" style="stop-color:#FFDE4F"/>
			</linearGradient>
			<polygon style="fill:url(#SVGID_00000029024506484876242120000005697981888065955970_);" points="141.27,30.5 169.9,30.5 
				169.9,30.5 139.4,0 122.32,0 110.77,0 			"/>
			
				<linearGradient id="SVGID_00000050642540250911062570000001580582082967380374_" gradientUnits="userSpaceOnUse" x1="-1653.7561" y1="-111.2082" x2="-1668.066" y2="-96.8982" gradientTransform="matrix(0 -1 -1 0 64.9068 -1645.6611)">
				<stop  offset="3.738020e-07" style="stop-color:#EA8B1B"/>
				<stop  offset="1" style="stop-color:#FFDE4F"/>
			</linearGradient>
			<polygon style="fill:url(#SVGID_00000050642540250911062570000001580582082967380374_);" points="168.02,0 139.4,0 169.9,30.5 
				198.52,30.5 			"/>
			
				<linearGradient id="SVGID_00000012456399287743287420000006131659164910913434_" gradientUnits="userSpaceOnUse" x1="-1653.7535" y1="-139.8357" x2="-1668.0686" y2="-125.5207" gradientTransform="matrix(0 -1 -1 0 64.9068 -1645.6611)">
				<stop  offset="3.738020e-07" style="stop-color:#EA8B1B"/>
				<stop  offset="1" style="stop-color:#FFDE4F"/>
			</linearGradient>
			<polygon style="fill:url(#SVGID_00000012456399287743287420000006131659164910913434_);" points="198.52,30.5 227.15,30.5 
				196.65,0 179.66,0 168.02,0 			"/>
			<rect x="55.38" y="30.5" class="st1" width="0" height="28.63"/>
			<rect x="55.38" y="59.13" class="st1" width="0" height="21.15"/>
			<polygon class="st1" points="55.38,87.81 55.38,87.81 55.38,91.43 55.38,116.39 55.38,116.39 			"/>
			<polygon class="st1" points="48.69,132.54 62.07,119.15 62.07,119.15 			"/>
			<rect x="55.38" y="135.31" class="st1" width="0" height="2.46"/>
			<rect x="55.38" y="135.31" class="st1" width="0" height="2.46"/>
			<rect x="109.42" y="134.9" class="st1" width="0" height="2.87"/>
		</g>
	</g>
</g>
</svg>
