{
  "accessors": [
    {
      "bufferView": 2,
      "componentType": 5126,
      "count": 65534,
      "max": [
        1.4484378099441528,
        1.260392189025879,
        -0.043333347886800766
      ],
      "min": [
        -0.6001850366592407,
        -0.9493529796600342,
        -1.411653995513916
      ],
      "type": "VEC3"
    },
    {
      "bufferView": 2,
      "byteOffset": 786408,
      "componentType": 5126,
      "count": 65534,
      "max": [
        0.999967634677887,
        0.9992756843566895,
        0.9991539120674133
      ],
      "min": [
        -0.9995423555374146,
        -0.9999637603759766,
        -0.999977707862854
      ],
      "type": "VEC3"
    },
    {
      "bufferView": 1,
      "componentType": 5126,
      "count": 65534,
      "max": [
        0.9996304512023926,
        0.9999600052833557
      ],
      "min": [
        0.002415658440440893,
        0.0003239964134991169
      ],
      "type": "VEC2"
    },
    {
      "bufferView": 0,
      "componentType": 5125,
      "count": 357597,
      "type": "SCALAR"
    },
    {
      "bufferView": 2,
      "byteOffset": 1572816,
      "componentType": 5126,
      "count": 65532,
      "max": [
        1.4213013648986816,
        1.2712839841842651,
        0.29625770449638367
      ],
      "min": [
        -0.7641569375991821,
        -1.1014485359191895,
        -1.261911153793335
      ],
      "type": "VEC3"
    },
    {
      "bufferView": 2,
      "byteOffset": 2359200,
      "componentType": 5126,
      "count": 65532,
      "max": [
        0.9999663233757019,
        0.9992511868476868,
        0.9986289739608765
      ],
      "min": [
        -0.9999983310699463,
        -0.9999923706054688,
        -0.9999876022338867
      ],
      "type": "VEC3"
    },
    {
      "bufferView": 1,
      "byteOffset": 524272,
      "componentType": 5126,
      "count": 65532,
      "max": [
        0.9997557997703552,
        0.9930558800697327
      ],
      "min": [
        0.0012284057447686791,
        0.00029666628688573837
      ],
      "type": "VEC2"
    },
    {
      "bufferView": 0,
      "byteOffset": 1430388,
      "componentType": 5125,
      "count": 334137,
      "type": "SCALAR"
    },
    {
      "bufferView": 2,
      "byteOffset": 3145584,
      "componentType": 5126,
      "count": 65532,
      "max": [
        1.293656587600708,
        1.3442955017089844,
        0.5130546689033508
      ],
      "min": [
        -0.8143587112426758,
        -1.1863898038864136,
        -1.0414396524429321
      ],
      "type": "VEC3"
    },
    {
      "bufferView": 2,
      "byteOffset": 3931968,
      "componentType": 5126,
      "count": 65532,
      "max": [
        0.9999909996986389,
        0.9999918937683105,
        0.9999747276306152
      ],
      "min": [
        -0.9999622702598572,
        -0.9999890327453613,
        -0.999977707862854
      ],
      "type": "VEC3"
    },
    {
      "bufferView": 1,
      "byteOffset": 1048528,
      "componentType": 5126,
      "count": 65532,
      "max": [
        0.9997053146362305,
        0.9988730549812317
      ],
      "min": [
        0.002099831122905016,
        0.0003401802387088537
      ],
      "type": "VEC2"
    },
    {
      "bufferView": 0,
      "byteOffset": 2766936,
      "componentType": 5125,
      "count": 319221,
      "type": "SCALAR"
    },
    {
      "bufferView": 2,
      "byteOffset": 4718352,
      "componentType": 5126,
      "count": 65532,
      "max": [
        1.1326611042022705,
        1.2936363220214844,
        1.7159833908081055
      ],
      "min": [
        -1.2160309553146362,
        -1.459578514099121,
        -0.6923484206199646
      ],
      "type": "VEC3"
    },
    {
      "bufferView": 2,
      "byteOffset": 5504736,
      "componentType": 5126,
      "count": 65532,
      "max": [
        0.9998615980148315,
        0.9999803304672241,
        0.9999935626983643
      ],
      "min": [
        -0.9999696016311646,
        -0.9998389482498169,
        -0.9999929070472717
      ],
      "type": "VEC3"
    },
    {
      "bufferView": 1,
      "byteOffset": 1572784,
      "componentType": 5126,
      "count": 65532,
      "max": [
        0.9968900680541992,
        0.9940378069877625
      ],
      "min": [
        0.002958530792966485,
        0.0012406539171934128
      ],
      "type": "VEC2"
    },
    {
      "bufferView": 0,
      "byteOffset": 4043820,
      "componentType": 5125,
      "count": 338166,
      "type": "SCALAR"
    },
    {
      "bufferView": 2,
      "byteOffset": 6291120,
      "componentType": 5126,
      "count": 65532,
      "max": [
        0.9587512016296387,
        1.013288140296936,
        1.5260975360870361
      ],
      "min": [
        -1.2809170484542847,
        -1.4511502981185913,
        0.01966770738363266
      ],
      "type": "VEC3"
    },
    {
      "bufferView": 2,
      "byteOffset": 7077504,
      "componentType": 5126,
      "count": 65532,
      "max": [
        0.9999649524688721,
        0.999923586845398,
        0.999961793422699
      ],
      "min": [
        -0.9999805092811584,
        -0.999984860420227,
        -0.9999929070472717
      ],
      "type": "VEC3"
    },
    {
      "bufferView": 1,
      "byteOffset": 2097040,
      "componentType": 5126,
      "count": 65532,
      "max": [
        0.9989752173423767,
        0.999922513961792
      ],
      "min": [
        0.002948549808934331,
        0.00014949811156839132
      ],
      "type": "VEC2"
    },
    {
      "bufferView": 0,
      "byteOffset": 5396484,
      "componentType": 5125,
      "count": 326733,
      "type": "SCALAR"
    },
    {
      "bufferView": 2,
      "byteOffset": 7863888,
      "componentType": 5126,
      "count": 65532,
      "max": [
        1.4464216232299805,
        1.0842293500900269,
        1.7156977653503418
      ],
      "min": [
        -1.2783355712890625,
        -1.279200792312622,
        -0.996443510055542
      ],
      "type": "VEC3"
    },
    {
      "bufferView": 2,
      "byteOffset": 8650272,
      "componentType": 5126,
      "count": 65532,
      "max": [
        0.999920666217804,
        0.9999533295631409,
        0.9999815225601196
      ],
      "min": [
        -0.9999623894691467,
        -0.999942421913147,
        -0.9995008707046509
      ],
      "type": "VEC3"
    },
    {
      "bufferView": 1,
      "byteOffset": 2621296,
      "componentType": 5126,
      "count": 65532,
      "max": [
        0.9999788999557495,
        0.9968911409378052
      ],
      "min": [
        3.4212356695206836e-05,
        0.0010329848155379295
      ],
      "type": "VEC2"
    },
    {
      "bufferView": 0,
      "byteOffset": 6703416,
      "componentType": 5125,
      "count": 311619,
      "type": "SCALAR"
    },
    {
      "bufferView": 2,
      "byteOffset": 9436656,
      "componentType": 5126,
      "count": 65532,
      "max": [
        1.1393646001815796,
        1.164404273033142,
        1.503607988357544
      ],
      "min": [
        -1.2480109930038452,
        -1.459578514099121,
        -0.4937545955181122
      ],
      "type": "VEC3"
    },
    {
      "bufferView": 2,
      "byteOffset": 10223040,
      "componentType": 5126,
      "count": 65532,
      "max": [
        0.9999798536300659,
        0.9999377727508545,
        0.9999484419822693
      ],
      "min": [
        -0.9999805092811584,
        -0.9999294877052307,
        -0.9999492764472961
      ],
      "type": "VEC3"
    },
    {
      "bufferView": 1,
      "byteOffset": 3145552,
      "componentType": 5126,
      "count": 65532,
      "max": [
        0.9997036457061768,
        0.9999433755874634
      ],
      "min": [
        0.0019821752794086933,
        0.00018884113524109125
      ],
      "type": "VEC2"
    },
    {
      "bufferView": 0,
      "byteOffset": 7949892,
      "componentType": 5125,
      "count": 309123,
      "type": "SCALAR"
    },
    {
      "bufferView": 2,
      "byteOffset": 11009424,
      "componentType": 5126,
      "count": 39049,
      "max": [
        1.1516716480255127,
        1.289336919784546,
        0.709892749786377
      ],
      "min": [
        -0.9078238010406494,
        -1.3595619201660156,
        -0.6583154201507568
      ],
      "type": "VEC3"
    },
    {
      "bufferView": 2,
      "byteOffset": 11478012,
      "componentType": 5126,
      "count": 39049,
      "max": [
        0.9999909996986389,
        0.9999862909317017,
        0.999819815158844
      ],
      "min": [
        -0.9998992085456848,
        -0.9999913573265076,
        -0.9998921751976013
      ],
      "type": "VEC3"
    },
    {
      "bufferView": 1,
      "byteOffset": 3669808,
      "componentType": 5126,
      "count": 39049,
      "max": [
        0.9977301359176636,
        0.9997682571411133
      ],
      "min": [
        0.0020423203241080046,
        5.876552313566208e-05
      ],
      "type": "VEC2"
    },
    {
      "bufferView": 0,
      "byteOffset": 9186384,
      "componentType": 5125,
      "count": 163176,
      "type": "SCALAR"
    }
  ],
  "asset": {
    "extras": {
      "author": "Vision Fountain (https://sketchfab.com/visionfountain)",
      "license": "CC-BY-4.0 (http://creativecommons.org/licenses/by/4.0/)",
      "source": "https://sketchfab.com/3d-models/chinsese-keepsake-pot-guangdong-china-984c1161626248ee9f765cdffe6c165d",
      "title": "Chinsese Keepsake Pot, Guangdong, China"
    },
    "generator": "Sketchfab-12.68.0",
    "version": "2.0"
  },
  "bufferViews": [
    {
      "buffer": 0,
      "byteLength": 9839088,
      "name": "floatBufferViews",
      "target": 34963
    },
    {
      "buffer": 0,
      "byteLength": 3982200,
      "byteOffset": 9839088,
      "byteStride": 8,
      "name": "floatBufferViews",
      "target": 34962
    },
    {
      "buffer": 0,
      "byteLength": 11946600,
      "byteOffset": 13821288,
      "byteStride": 12,
      "name": "floatBufferViews",
      "target": 34962
    }
  ],
  "buffers": [
    {
      "byteLength": 25767888,
      "uri": "scene.bin"
    }
  ],
  "extensionsUsed": [
    "KHR_materials_unlit"
  ],
  "images": [
    {
      "uri": "textures/material0_baseColor.jpeg"
    }
  ],
  "materials": [
    {
      "doubleSided": true,
      "extensions": {
        "KHR_materials_unlit": {}
      },
      "name": "material0",
      "pbrMetallicRoughness": {
        "baseColorTexture": {
          "index": 0
        },
        "metallicFactor": 0.0
      }
    }
  ],
  "meshes": [
    {
      "name": "Model_material0_0",
      "primitives": [
        {
          "attributes": {
            "NORMAL": 1,
            "POSITION": 0,
            "TEXCOORD_0": 2
          },
          "indices": 3,
          "material": 0,
          "mode": 4
        }
      ]
    },
    {
      "name": "Model_material0_0",
      "primitives": [
        {
          "attributes": {
            "NORMAL": 5,
            "POSITION": 4,
            "TEXCOORD_0": 6
          },
          "indices": 7,
          "material": 0,
          "mode": 4
        }
      ]
    },
    {
      "name": "Model_material0_0",
      "primitives": [
        {
          "attributes": {
            "NORMAL": 9,
            "POSITION": 8,
            "TEXCOORD_0": 10
          },
          "indices": 11,
          "material": 0,
          "mode": 4
        }
      ]
    },
    {
      "name": "Model_material0_0",
      "primitives": [
        {
          "attributes": {
            "NORMAL": 13,
            "POSITION": 12,
            "TEXCOORD_0": 14
          },
          "indices": 15,
          "material": 0,
          "mode": 4
        }
      ]
    },
    {
      "name": "Model_material0_0",
      "primitives": [
        {
          "attributes": {
            "NORMAL": 17,
            "POSITION": 16,
            "TEXCOORD_0": 18
          },
          "indices": 19,
          "material": 0,
          "mode": 4
        }
      ]
    },
    {
      "name": "Model_material0_0",
      "primitives": [
        {
          "attributes": {
            "NORMAL": 21,
            "POSITION": 20,
            "TEXCOORD_0": 22
          },
          "indices": 23,
          "material": 0,
          "mode": 4
        }
      ]
    },
    {
      "name": "Model_material0_0",
      "primitives": [
        {
          "attributes": {
            "NORMAL": 25,
            "POSITION": 24,
            "TEXCOORD_0": 26
          },
          "indices": 27,
          "material": 0,
          "mode": 4
        }
      ]
    },
    {
      "name": "Model_material0_0",
      "primitives": [
        {
          "attributes": {
            "NORMAL": 29,
            "POSITION": 28,
            "TEXCOORD_0": 30
          },
          "indices": 31,
          "material": 0,
          "mode": 4
        }
      ]
    }
  ],
  "nodes": [
    {
      "children": [
        1
      ],
      "matrix": [
        -0.205087810754776,
        -0.3094743490219114,
        -0.9285281896591188,
        0.0,
        0.8936419486999512,
        0.32771304249763494,
        -0.30660766363143915,
        0.0,
        0.39917799830436707,
        -0.892653226852417,
        0.20934930443763713,
        0.0,
        0.11016632616519928,
        -0.28097379207611084,
        0.06965906918048853,
        1.0
      ],
      "name": "Sketchfab_model"
    },
    {
      "children": [
        2
      ],
      "matrix": [
        1.0,
        0.0,
        0.0,
        0.0,
        0.0,
        -1.0,
        0.0,
        0.0,
        0.0,
        0.0,
        -1.0,
        0.0,
        0.0,
        0.0,
        0.0,
        1.0
      ],
      "name": "model.fbx"
    },
    {
      "children": [
        3
      ],
      "name": "RootNode"
    },
    {
      "children": [
        4,
        5,
        6,
        7,
        8,
        9,
        10,
        11
      ],
      "name": "Model"
    },
    {
      "mesh": 0,
      "name": "Model_material0_0"
    },
    {
      "mesh": 1,
      "name": "Model_material0_0"
    },
    {
      "mesh": 2,
      "name": "Model_material0_0"
    },
    {
      "mesh": 3,
      "name": "Model_material0_0"
    },
    {
      "mesh": 4,
      "name": "Model_material0_0"
    },
    {
      "mesh": 5,
      "name": "Model_material0_0"
    },
    {
      "mesh": 6,
      "name": "Model_material0_0"
    },
    {
      "mesh": 7,
      "name": "Model_material0_0"
    }
  ],
  "samplers": [
    {
      "magFilter": 9729,
      "minFilter": 9987,
      "wrapS": 10497,
      "wrapT": 10497
    }
  ],
  "scene": 0,
  "scenes": [
    {
      "name": "Sketchfab_Scene",
      "nodes": [
        0
      ]
    }
  ],
  "textures": [
    {
      "sampler": 0,
      "source": 0
    }
  ]
}
