{
  "accessors": [
    {
      "bufferView": 2,
      "componentType": 5126,
      "count": 4698,
      "max": [
        2.4734954833984375,
        -0.5389252305030823,
        0.6405343413352966
      ],
      "min": [
        0.28981173038482666,
        -2.021430015563965,
        -0.008811061270534992
      ],
      "type": "VEC3"
    },
    {
      "bufferView": 2,
      "byteOffset": 56376,
      "componentType": 5126,
      "count": 4698,
      "max": [
        0.9998339414596558,
        1.0,
        0.9999926686286926
      ],
      "min": [
        -0.9998202323913574,
        -1.0,
        -0.9999924898147583
      ],
      "type": "VEC3"
    },
    {
      "bufferView": 1,
      "componentType": 5126,
      "count": 4698,
      "max": [
        0.9929172396659851,
        0.9991933107376099
      ],
      "min": [
        0.0008067486342042685,
        0.0008067486342042685
      ],
      "type": "VEC2"
    },
    {
      "bufferView": 1,
      "byteOffset": 37584,
      "componentType": 5126,
      "count": 4698,
      "max": [
        0.9973260760307312,
        0.99736088514328
      ],
      "min": [
        0.002641575410962105,
        0.002637999365106225
      ],
      "type": "VEC2"
    },
    {
      "bufferView": 0,
      "componentType": 5125,
      "count": 17856,
      "type": "SCALAR"
    }
  ],
  "asset": {
    "extras": {
      "author": "buypalms (https://sketchfab.com/buypalms)",
      "license": "CC-BY-4.0 (http://creativecommons.org/licenses/by/4.0/)",
      "source": "https://sketchfab.com/3d-models/baked-mesh-test-b1654f45afd844c79c2c36fe90c29157",
      "title": "Baked mesh test"
    },
    "generator": "Sketchfab-15.55.0",
    "version": "2.0"
  },
  "bufferViews": [
    {
      "buffer": 0,
      "byteLength": 71424,
      "name": "floatBufferViews",
      "target": 34963
    },
    {
      "buffer": 0,
      "byteLength": 75168,
      "byteOffset": 71424,
      "byteStride": 8,
      "name": "floatBufferViews",
      "target": 34962
    },
    {
      "buffer": 0,
      "byteLength": 112752,
      "byteOffset": 146592,
      "byteStride": 12,
      "name": "floatBufferViews",
      "target": 34962
    }
  ],
  "buffers": [
    {
      "byteLength": 259344,
      "uri": "scene.bin"
    }
  ],
  "images": [
    {
      "uri": "textures/spruce_wood_rough_clean_baseColor.png"
    }
  ],
  "materials": [
    {
      "doubleSided": true,
      "name": "spruce_wood_rough_clean",
      "pbrMetallicRoughness": {
        "baseColorTexture": {
          "index": 0
        },
        "metallicFactor": 0.0,
        "roughnessFactor": 0.8211145618000169
      }
    }
  ],
  "meshes": [
    {
      "name": "mesh_bench_spruce wood rough clean_0",
      "primitives": [
        {
          "attributes": {
            "NORMAL": 1,
            "POSITION": 0,
            "TEXCOORD_0": 2,
            "TEXCOORD_1": 3
          },
          "indices": 4,
          "material": 0,
          "mode": 4
        }
      ]
    }
  ],
  "nodes": [
    {
      "children": [
        1
      ],
      "matrix": [
        1.0,
        0.0,
        0.0,
        0.0,
        0.0,
        2.220446049250313e-16,
        -1.0,
        0.0,
        0.0,
        1.0,
        2.220446049250313e-16,
        0.0,
        0.0,
        0.0,
        0.0,
        1.0
      ],
      "name": "Sketchfab_model"
    },
    {
      "children": [
        2
      ],
      "matrix": [
        0.009999999776482582,
        0.0,
        0.0,
        0.0,
        0.0,
        0.0,
        0.009999999776482582,
        0.0,
        0.0,
        -0.009999999776482582,
        0.0,
        0.0,
        0.0,
        0.0,
        0.0,
        1.0
      ],
      "name": "mesh_bench.fbx"
    },
    {
      "children": [
        3
      ],
      "name": "RootNode"
    },
    {
      "children": [
        4
      ],
      "matrix": [
        100.0,
        0.0,
        0.0,
        0.0,
        0.0,
        -1.629206793918314e-05,
        -99.99999999999868,
        0.0,
        0.0,
        99.99999999999868,
        -1.629206793918314e-05,
        0.0,
        0.0,
        0.0,
        0.0,
        1.0
      ],
      "name": "mesh_bench"
    },
    {
      "mesh": 0,
      "name": "mesh_bench_spruce wood rough clean_0"
    }
  ],
  "samplers": [
    {
      "magFilter": 9729,
      "minFilter": 9987,
      "wrapS": 10497,
      "wrapT": 10497
    }
  ],
  "scene": 0,
  "scenes": [
    {
      "name": "Sketchfab_Scene",
      "nodes": [
        0
      ]
    }
  ],
  "textures": [
    {
      "sampler": 0,
      "source": 0
    }
  ]
}
